<svg width="21" height="21" viewBox="0 0 21 21" fill="none" xmlns="http://www.w3.org/2000/svg">
<path fill-rule="evenodd" clip-rule="evenodd" d="M14.6104 2.3174C13.404 2.31738 12.6264 2.4611 11.735 2.89744C11.4049 3.05899 11.0953 3.25354 10.8077 3.48052C10.5312 3.26627 10.234 3.08065 9.91759 2.92416C9.00885 2.4747 8.19131 2.31738 7.0282 2.31738C3.91311 2.31738 1.64941 4.89844 1.64941 8.25061C1.64941 10.7822 3.06094 13.2276 5.69011 15.5923C7.07016 16.8335 8.83218 18.0618 10.0941 18.7153L10.8161 19.0892L11.5381 18.7153C12.8 18.0618 14.562 16.8335 15.942 15.5923C18.5712 13.2276 19.9827 10.7822 19.9827 8.25061C19.9827 4.93392 17.6977 2.33018 14.6104 2.3174ZM18.3161 8.25061C18.3161 10.234 17.1379 12.2751 14.8275 14.3531C13.5679 15.486 11.9485 16.6182 10.8161 17.2121C9.68361 16.6182 8.06426 15.486 6.80464 14.3531C4.49427 12.2751 3.31608 10.234 3.31608 8.25061C3.31608 5.77381 4.88578 3.98405 7.0282 3.98405C7.95298 3.98405 8.52285 4.09371 9.17869 4.41809C9.56609 4.60969 9.90848 4.86269 10.2049 5.17886L10.818 5.83297L11.4256 5.17367C11.7287 4.84484 12.0761 4.58608 12.4677 4.3944C13.1043 4.08279 13.6386 3.98405 14.607 3.98406C16.7229 3.99283 18.3161 5.80819 18.3161 8.25061Z" fill="#3B3C3D"/>
</svg>
