<?xml version="1.0" encoding="utf-8"?><svg xmlns="http://www.w3.org/2000/svg" xmlns:xlink="http://www.w3.org/1999/xlink"><symbol viewBox="0 0 34 34" id="chevron-left" xmlns="http://www.w3.org/2000/svg"><path d="M21.22 29L10 17.5 21.22 6 24 8.85l-8.44 8.65L24 26.15 21.22 29z"/></symbol><symbol viewBox="0 0 34 34" id="chevron-right" xmlns="http://www.w3.org/2000/svg"><path d="M12.78 29L24 17.5 12.78 6 10 8.85l8.44 8.65L10 26.15 12.78 29z"/></symbol><symbol viewBox="0 0 9 5" id="dropdown-arrow" xmlns="http://www.w3.org/2000/svg"><path d="M4.5 4.5L.603 0h7.794L4.5 4.5z"/></symbol><symbol viewBox="0 0 17 12" id="left" xmlns="http://www.w3.org/2000/svg"><path d="M7.111 10.735L5.873 12 0 6l5.873-6 1.238 1.265-3.759 3.84H17v1.79H3.352l3.76 3.84z"/></symbol><symbol viewBox="0 0 32 32" id="linkedin" xmlns="http://www.w3.org/2000/svg"><path fill-rule="evenodd" clip-rule="evenodd" d="M26.972 1.323H1.323v29.354h29.354V5.028l-3.705-3.705zM27.52 0H0v32h32V4.48L27.52 0z"/><path d="M11.807 23.04v-9.5H8.514v9.5h3.293zM10.16 12.242c1.148 0 1.863-.729 1.863-1.64-.021-.933-.715-1.642-1.841-1.642s-1.863.71-1.863 1.641c0 .912.715 1.641 1.82 1.641h.021zm3.468 10.798h3.293v-5.305c0-.284.021-.568.108-.77.238-.568.78-1.155 1.69-1.155 1.191 0 1.668.87 1.668 2.148v5.082h3.292v-5.447c0-2.918-1.624-4.276-3.79-4.276-1.777 0-2.557.952-2.99 1.6h.022V13.54h-3.293c.044.892 0 9.5 0 9.5z"/></symbol><symbol viewBox="0 0 17 12" id="right" xmlns="http://www.w3.org/2000/svg"><path d="M9.889 10.735L11.127 12 17 6l-5.873-6-1.238 1.265 3.759 3.84H0v1.79h13.648l-3.76 3.84z"/></symbol><symbol viewBox="0 0 32 32" id="telegram" xmlns="http://www.w3.org/2000/svg"><path fill-rule="evenodd" clip-rule="evenodd" d="M26.972 1.323H1.323v29.354h29.354V5.028l-3.705-3.705zM27.52 0H0v32h32V4.48L27.52 0z"/><path d="M23.68 11.12a5.73 5.73 0 01-1.737.5 3.19 3.19 0 001.327-1.78 5.724 5.724 0 01-1.915.78 3.018 3.018 0 00-1.002-.755A2.84 2.84 0 0019.15 9.6c-1.671 0-3.016 1.45-3.016 3.23 0 .25.028.5.074.74-2.503-.14-4.735-1.42-6.22-3.38a3.38 3.38 0 00-.41 1.631c0 1.121.533 2.11 1.345 2.69a2.892 2.892 0 01-1.364-.41v.04c0 1.57 1.036 2.87 2.418 3.17-.26.071-.526.108-.794.11a3.81 3.81 0 01-.57-.05c.382 1.28 1.495 2.21 2.82 2.24a5.798 5.798 0 01-3.745 1.38 5.82 5.82 0 01-.729-.04 8.14 8.14 0 004.633 1.449c5.548 0 8.583-4.92 8.583-9.19 0-.14 0-.28-.008-.42a6.765 6.765 0 001.512-1.67z"/></symbol><symbol viewBox="0 0 32 32" id="youtube" xmlns="http://www.w3.org/2000/svg"><path fill-rule="evenodd" clip-rule="evenodd" d="M26.972 1.323H1.323v29.354h29.354V5.028l-3.705-3.705zM27.52 0H0v32h32V4.48L27.52 0z"/><path d="M22.9 13.184s-.137-.97-.56-1.397c-.536-.56-1.137-.564-1.411-.596-1.969-.144-4.925-.144-4.925-.144h-.006s-2.956 0-4.925.144c-.276.033-.875.036-1.41.596-.424.426-.559 1.397-.559 1.397s-.14 1.139-.14 2.28v1.067c0 1.14.14 2.28.14 2.28s.138.971.558 1.398c.536.56 1.24.542 1.554.602 1.128.107 4.788.14 4.788.14s2.96-.006 4.928-.146c.276-.033.875-.036 1.411-.597.423-.426.56-1.397.56-1.397s.14-1.14.14-2.28v-1.068c-.002-1.139-.143-2.28-.143-2.28zm-8.355 4.642v-3.958l3.804 1.986-3.804 1.972z"/></symbol></svg>